<?xml version="1.0" encoding="iso-8859-1"?>
<!-- Uploaded to: SVG Repo, www.svgrepo.com, Generator: SVG Repo Mixer Tools -->
<svg fill="#000000" height="800px" width="800px" version="1.1" id="Layer_1" xmlns="http://www.w3.org/2000/svg" xmlns:xlink="http://www.w3.org/1999/xlink" 
	 viewBox="0 0 511.999 511.999" xml:space="preserve">
<g>
	<g>
		<path d="M370.417,372.214c-4.069-4.329-10.875-4.54-15.206-0.471c-0.616,0.581-1.247,1.154-1.889,1.722
			c-4.448,3.938-4.862,10.737-0.923,15.185c2.127,2.401,5.086,3.626,8.059,3.626c2.534,0,5.08-0.891,7.127-2.703
			c0.801-0.71,1.59-1.429,2.361-2.153C374.274,383.353,374.486,376.544,370.417,372.214z"/>
	</g>
</g>
<g>
	<g>
		<path d="M433.695,205.276c-0.024-0.138-0.053-0.275-0.082-0.413l-5.067-22.966c-12.914-58.579-29.551-117.217-49.48-174.352
			l-0.118-0.333c-1.376-3.865-4.832-6.612-8.909-7.077c-4.079-0.468-8.064,1.426-10.28,4.881l-51.777,80.755H204.113L152.316,4.952
			c-2.219-3.464-6.215-5.358-10.311-4.879c-4.088,0.48-7.544,3.25-8.901,7.136c-9.982,28.57-19.244,57.828-27.529,86.963
			c-8.254,29.078-15.73,58.735-22.22,88.146l-4.97,22.548c-0.03,0.137-0.058,0.273-0.082,0.411
			c-4.066,22.61-2.313,46.13,5.069,68.017c6.68,19.806,18.009,38.394,32.889,54.073c-0.136,1.708-0.208,3.411-0.208,5.098
			c0,26.043,15.188,50.184,42.766,67.977c16.372,10.563,36.045,18.148,57.448,22.34c-8.537,9.478-13.744,22.011-13.744,35.74
			c0,29.487,23.99,53.476,53.476,53.476c29.487,0,53.476-23.99,53.476-53.476c0-13.721-5.201-26.249-13.731-35.725
			c16.807-3.291,32.562-8.693,46.663-16.087c5.263-2.758,7.291-9.261,4.532-14.523c-2.757-5.26-9.258-7.292-14.523-4.532
			c-18.638,9.771-41.625,15.716-65.66,17.091v-24.873h0.721c24.248,0,47.668-4.438,69.605-13.19
			c12.411-4.949,23.937-11.159,34.489-18.542c-0.652,1.765-1.411,3.517-2.284,5.25c-2.67,5.307-0.534,11.774,4.773,14.445
			c1.551,0.781,3.203,1.151,4.828,1.151c3.935,0,7.727-2.169,9.617-5.923c4.936-9.806,7.438-20.101,7.438-30.599
			c0-1.687-0.072-3.391-0.208-5.099c14.88-15.679,26.209-34.267,32.889-54.072C436.009,251.406,437.763,227.886,433.695,205.276z
			 M170.482,382.362c-15.123-9.757-25.4-21.56-30.062-34.224c10.553,7.385,22.081,13.597,34.493,18.546
			c21.94,8.752,45.36,13.19,69.607,13.19h0.721v24.871C216.872,403.164,190.64,395.367,170.482,382.362z M287.96,458.523
			c0,13.849-8.858,25.666-21.203,30.092v-30.092c0-5.94-4.817-10.758-10.758-10.758c-5.94,0-10.758,4.817-10.758,10.758v30.094
			c-12.346-4.427-21.203-16.243-21.203-30.094c0-17.617,14.338-31.95,31.961-31.95S287.96,440.905,287.96,458.523z M376.908,315.851
			c-13.407,13.171-29.487,23.55-47.795,30.849c-19.393,7.736-40.13,11.659-61.636,11.659h-11.478h-11.477
			c-21.506,0-42.243-3.922-61.638-11.659c-18.306-7.299-34.386-17.678-47.793-30.849c-29.553-29.026-42.539-67.858-35.649-106.562
			l4.923-22.338c6.399-28.995,13.77-58.234,21.907-86.899c6.145-21.614,12.837-43.296,19.967-64.709l42.935,66.991
			c1.978,3.086,5.392,4.953,9.057,4.953h115.634c3.665,0,7.077-1.865,9.056-4.952l42.91-66.927
			c16.527,49.696,30.532,100.434,41.706,151.124l5.021,22.758C419.447,247.992,406.461,286.823,376.908,315.851z"/>
	</g>
</g>
<g>
	<g>
		<path d="M314.186,286l-42.871-18.875l28.157-48.767c1.921-3.328,1.921-7.429,0-10.758c-1.921-3.328-5.474-5.379-9.316-5.379
			h-68.311c-3.843,0-7.395,2.05-9.316,5.379c-1.921,3.329-1.921,7.429,0,10.758l28.157,48.767L197.814,286
			c-5.438,2.395-7.906,8.743-5.511,14.181c2.395,5.439,8.743,7.906,14.181,5.511l49.518-21.802l49.515,21.8
			c1.41,0.621,2.881,0.914,4.329,0.914c4.135,0,8.078-2.398,9.851-6.426C322.091,294.742,319.623,288.394,314.186,286z
			 M255.998,250.622l-15.521-26.884h31.043L255.998,250.622z"/>
	</g>
</g>
<g>
	<g>
		<path d="M189.614,152.532c-5.94,0-10.758,4.816-10.758,10.758c0,7.907-6.432,14.34-14.34,14.34s-14.34-6.433-14.34-14.34
			c0-5.941-4.817-10.758-10.758-10.758s-10.758,4.816-10.758,10.758c0,19.77,16.085,35.855,35.855,35.855
			c19.77,0,35.855-16.085,35.855-35.855C200.371,157.348,195.554,152.532,189.614,152.532z"/>
	</g>
</g>
<g>
	<g>
		<path d="M372.58,152.532c-5.94,0-10.758,4.816-10.758,10.758c0,7.907-6.432,14.34-14.34,14.34c-7.908,0-14.34-6.433-14.34-14.34
			c0-5.941-4.817-10.758-10.758-10.758c-5.94,0-10.758,4.816-10.758,10.758c0,19.77,16.085,35.855,35.855,35.855
			c19.77,0,35.855-16.085,35.855-35.855C383.338,157.348,378.52,152.532,372.58,152.532z"/>
	</g>
</g>
</svg>